<?xml version="1.0" standalone="no"?>
<!DOCTYPE svg PUBLIC "-//W3C//DTD SVG 20010904//EN"
 "http://www.w3.org/TR/2001/REC-SVG-20010904/DTD/svg10.dtd">
<svg version="1.0" xmlns="http://www.w3.org/2000/svg"
 width="1268.000000pt" height="1280.000000pt" viewBox="0 0 1268.000000 1280.000000"
 preserveAspectRatio="xMidYMid meet">
<metadata>
Created by potrace 1.15, written by Peter Selinger 2001-2017
</metadata>
<g transform="translate(0.000000,1280.000000) scale(0.100000,-0.100000)"
fill="#000000" stroke="none">
<path d="M8192 10312 c-72 -26 -122 -68 -152 -127 -23 -47 -25 -64 -32 -275
-13 -351 -13 -960 0 -1095 6 -66 21 -156 32 -199 55 -215 254 -544 569 -941
187 -235 196 -266 196 -630 -1 -300 -28 -771 -50 -862 -18 -74 -49 -145 -75
-168 -11 -10 -49 -24 -86 -31 -124 -26 -226 -90 -388 -244 -183 -174 -222
-184 -357 -94 -143 96 -298 162 -530 223 -293 78 -445 95 -774 88 -488 -11
-1001 -109 -1266 -242 -297 -149 -712 -474 -1135 -888 -310 -303 -492 -524
-554 -674 -142 -338 -227 -988 -218 -1665 3 -245 2 -257 -18 -284 -48 -65 -77
-58 -183 40 -86 81 -138 105 -195 89 -25 -6 -37 -21 -67 -80 -19 -40 -51 -116
-70 -170 -30 -87 -34 -109 -34 -198 1 -71 7 -122 23 -176 l21 -76 -93 -94
c-150 -152 -155 -193 -45 -337 84 -110 321 -365 414 -446 154 -133 420 -293
545 -326 28 -8 135 -13 290 -15 298 -2 370 -15 548 -98 250 -117 515 -180 867
-206 176 -14 941 -64 1305 -87 383 -24 725 -25 807 -2 87 24 151 59 219 118
75 65 94 95 94 146 0 51 -27 103 -120 230 -184 252 -166 305 113 324 78 6 158
15 177 21 19 7 107 44 195 84 187 85 265 113 343 123 113 15 170 -9 244 -106
64 -82 138 -145 230 -192 106 -56 144 -80 363 -235 395 -279 465 -305 828
-305 365 0 735 54 869 127 102 56 129 149 72 253 -42 77 -108 129 -364 289
-395 246 -473 309 -528 420 -34 71 -37 82 -37 166 0 74 4 97 23 132 61 116
134 163 324 209 263 65 355 129 443 307 65 133 84 217 100 458 16 242 36 332
99 456 25 49 52 119 61 158 42 186 60 563 31 660 -16 53 -49 109 -130 224 -79
112 -73 198 20 300 51 58 95 77 188 85 239 19 652 113 779 177 65 33 192 171
312 340 60 85 135 189 167 231 66 91 84 154 74 258 -16 173 -103 319 -248 417
-64 43 -109 117 -181 293 -69 170 -96 220 -177 325 -33 43 -108 155 -167 249
-263 422 -308 472 -508 566 -185 88 -363 135 -556 148 -134 10 -165 23 -173
74 -7 44 -24 286 -35 488 -6 99 -18 203 -31 260 -120 539 -396 1257 -639 1666
-93 157 -142 186 -281 166 -113 -16 -201 -47 -238 -83 -47 -46 -62 -109 -76
-322 -11 -167 -14 -190 -33 -208 -19 -19 -23 -20 -49 -6 -40 21 -103 98 -179
219 -143 229 -183 286 -260 364 -94 96 -204 171 -301 204 -96 33 -275 39 -352
12z"/>
</g>
</svg>
